<svg width="292" height="216" xmlns="http://www.w3.org/2000/svg">
 <metadata/>

 <g>
  <title>background</title>
  <rect fill="none" id="canvas_background" height="218" width="294" y="-1" x="-1"/>
 </g>
 <g>
  <title>Layer 1</title>
  <g id="svg_1">
   <g id="svg_2">
    <g id="svg_3">
     <path id="svg_4" d="m431.678,125.337c12.384,0 18.568,-6.19 18.568,-18.567l13.927,0c0,21.659 -10.835,32.498 -32.495,32.498l-32.491,0c-21.656,0 -32.491,-10.839 -32.491,-32.498l0,-74.272c0,-21.66 10.835,-32.488 32.491,-32.488l32.491,0c21.66,0 32.495,10.828 32.495,32.488l-13.927,0c0,-12.377 -6.184,-18.568 -18.568,-18.568l-32.491,0c-12.381,0 -18.564,6.19 -18.564,18.568l0,74.271c0,12.377 6.184,18.567 18.564,18.567l32.491,0l0,0.001z" fill="#FFFFFF"/>
     <path id="svg_5" d="m559.911,125.337c12.385,0 18.568,-6.19 18.568,-18.567l0,-106.76l13.927,0l0,106.76c0,21.659 -10.832,32.498 -32.495,32.498l-32.491,0c-21.66,0 -32.491,-10.839 -32.491,-32.498l0,-106.76l13.924,0l0,106.76c0,12.377 6.19,18.567 18.567,18.567l32.491,0z" fill="#FFFFFF"/>
     <path id="svg_6" d="m623.159,139.261l0,-139.258l51.059,0c29.396,0 44.098,12.381 44.098,37.139c0,13.8 -4.579,23.764 -13.741,29.893c10.708,6.375 16.062,17.299 16.062,32.772c0,26.298 -15.473,39.453 -46.418,39.453l-51.06,0l0,0.001zm13.924,-125.331l0,46.418l37.135,0c20.114,0 30.171,-7.733 30.171,-23.206c0,-15.476 -10.057,-23.212 -30.171,-23.212l-37.135,0zm0,60.345l0,51.062l37.135,0c21.66,0 32.491,-8.514 32.491,-25.529c0,-17.025 -10.831,-25.533 -32.491,-25.533l-37.135,0z" fill="#FFFFFF"/>
     <rect id="svg_7" height="139.257" width="13.927" fill="#FFFFFF" y="0.003" x="751.386"/>
     <polygon id="svg_8" points="851.776,13.93 851.776,139.261 837.85,139.261 837.85,13.93 796.076,13.93 796.076,0.003      893.554,0.003 893.554,13.93    " fill="#FFFFFF"/>
     <path id="svg_9" d="m919.381,97.487l-11.977,41.773l-14.481,0l39.922,-139.25l17.821,0l39.919,139.25l-14.482,0l-11.973,-41.773l-44.749,0zm22.376,-78.172l-18.383,64.242l36.759,0l-18.376,-64.242z" fill="#FFFFFF"/>
     <path id="svg_10" d="m1083.832,125.337c12.381,0 18.564,-6.19 18.564,-18.567l13.93,0c0,21.659 -10.831,32.498 -32.494,32.498l-32.488,0c-21.666,0 -32.494,-10.839 -32.494,-32.498l0,-74.272c0,-21.66 10.828,-32.488 32.494,-32.488l32.488,0c21.663,0 32.494,10.828 32.494,32.488l-13.93,0c0,-12.377 -6.184,-18.568 -18.564,-18.568l-32.488,0c-12.384,0 -18.567,6.19 -18.567,18.568l0,74.271c0,12.377 6.184,18.567 18.567,18.567l32.488,0l0,0.001z" fill="#FFFFFF"/>
    </g>
    <g id="svg_11">
     <path id="svg_12" d="m599.882,197.758l0,-0.089c0,-9.488 7.099,-17.263 17.207,-17.263c6.149,0 9.868,2.146 13.063,5.197l-3.767,4.339c-2.67,-2.481 -5.529,-4.147 -9.344,-4.147c-6.39,0 -11.01,5.244 -11.01,11.777l0,0.097c0,6.526 4.62,11.866 11.01,11.866c4.1,0 6.722,-1.673 9.58,-4.339l3.767,3.812c-3.479,3.626 -7.294,5.916 -13.539,5.916c-9.725,0 -16.967,-7.582 -16.967,-17.166z" fill="#FFFFFF"/>
     <path id="svg_13" d="m648.343,180.742l5.436,0l14.682,33.605l-6.197,0l-3.384,-8.055l-15.78,0l-3.432,8.055l-6.009,0l14.684,-33.605zm8.39,20.355l-5.766,-13.348l-5.724,13.348l11.49,0z" fill="#FFFFFF"/>
     <path id="svg_14" d="m674.163,180.982l14.966,0c3.814,0 6.817,1.049 8.727,2.955c1.478,1.474 2.242,3.29 2.242,5.525l0,0.096c0,4.004 -2.29,6.149 -4.771,7.438c3.911,1.337 6.629,3.578 6.629,8.103l0,0.097c0,5.957 -4.908,9.151 -12.347,9.151l-15.445,0l0,-33.365l-0.001,0zm13.776,14.061c3.767,0 6.293,-1.48 6.293,-4.531l0,-0.096c0,-2.619 -2.098,-4.244 -5.861,-4.244l-8.442,0l0,8.871l8.01,0zm1.717,14.108c4.004,0 6.435,-1.569 6.435,-4.572l0,-0.097c0,-2.817 -2.238,-4.483 -6.866,-4.483l-9.296,0l0,9.152l9.727,0z" fill="#FFFFFF"/>
     <path id="svg_15" d="m708.899,180.982l5.861,0l0,33.365l-5.861,0l0,-33.365z" fill="#FFFFFF"/>
     <path id="svg_16" d="m723.666,180.982l5.437,0l17.875,23.068l0,-23.068l5.77,0l0,33.365l-4.912,0l-18.4,-23.74l0,23.74l-5.769,0l0,-33.365l-0.001,0z" fill="#FFFFFF"/>
     <path id="svg_17" d="m761.313,180.982l24.738,0l0,5.237l-18.877,0l0,8.68l16.73,0l0,5.244l-16.73,0l0,8.96l19.113,0l0,5.244l-24.975,0l0,-33.365l0.001,0z" fill="#FFFFFF"/>
     <path id="svg_18" d="m801.431,186.412l-10.585,0l0,-5.43l27.082,0l0,5.43l-10.585,0l0,27.936l-5.912,0l0,-27.936z" fill="#FFFFFF"/>
     <path id="svg_19" d="m824.111,180.982l14.873,0c4.192,0 7.482,1.241 9.628,3.332c1.766,1.81 2.767,4.291 2.767,7.205l0,0.089c0,5.484 -3.29,8.775 -7.963,10.104l9.009,12.635l-6.91,0l-8.199,-11.627l-7.343,0l0,11.627l-5.861,0l0,-33.365l-0.001,0zm14.445,16.542c4.192,0 6.866,-2.2 6.866,-5.58l0,-0.096c0,-3.572 -2.578,-5.532 -6.914,-5.532l-8.535,0l0,11.208l8.583,0z" fill="#FFFFFF"/>
     <path id="svg_20" d="m867.188,201.192l-13.251,-20.21l6.91,0l9.344,14.773l9.439,-14.773l6.722,0l-13.255,20.066l0,13.299l-5.909,0l0,-13.155z" fill="#FFFFFF"/>
    </g>
   </g>
   <g id="svg_21">
    <path id="svg_22" d="m110.406,188.235l-82.382,0l0,-160.22l82.382,0l0,160.22zm-28.306,-48.913l14.153,0l0,-62.641l-14.153,0l0,62.641z" fill="#FFFFFF"/>
    <path id="svg_23" d="m263.72,188.235l-82.381,0l0,-160.22l82.381,0l0,160.22zm-68.307,-48.913l14.153,0l0,-62.641l-14.153,0l0,62.641z" fill="#FFFFFF"/>
    <path id="svg_24" d="m124.878,201.96l-110.838,0l0,-187.92l110.838,0l0,62.641l14.04,0l0,-66.151c0,-5.813 -4.713,-10.53 -10.53,-10.53l-117.858,0c-5.814,0 -10.53,4.716 -10.53,10.53l0,194.94c0,5.813 4.716,10.53 10.53,10.53l117.858,0c5.817,0 10.53,-4.717 10.53,-10.53l0,-66.147l-14.04,0l0,62.637z" fill="#FFFFFF"/>
    <path id="svg_25" d="m281.458,0l-117.857,0c-5.817,0 -10.53,4.716 -10.53,10.53l0,66.151l14.04,0l0,-62.641l110.838,0l0,48.331l0,50.798l0,40.461l0,48.33l-110.839,0l0,-62.638l-14.04,0l0,66.147c0,5.813 4.713,10.53 10.53,10.53l117.858,0c5.813,0 10.53,-4.717 10.53,-10.53l0,-51.84l0,-40.461l0,-50.797l0,-51.841c0,-5.814 -4.716,-10.53 -10.53,-10.53z" fill="#FFFFFF"/>
   </g>
  </g>
 </g>
</svg>